{"title":"Raabta 2017 720 WebHD-Rip x264 AC3 Mafiaking M2Tv","magnet":"magnet:?xt=urn:btih:7a978a173f5e7aaea3a2f370de53fb2cce556f4c&dn=Raabta+2017+720+WebHD-Rip+x264+AC3+Mafiaking+M2Tv&tr=udp%3A%2F%2Ftracker.leechers-paradise.org%3A6969&tr=udp%3A%2F%2Fzer0day.ch%3A1337&tr=udp%3A%2F%2Fopen.demonii.com%3A1337&tr=udp%3A%2F%2Ftracker.coppersurfer.tk%3A6969&tr=udp%3A%2F%2Fexodus.desync.com%3A6969","uploader":"mafiaaking","categoryP":"video","categoryS":"movies","size":"1145760688","seeders":"2","leechers":"65","description":"Raabta (2017) - 720p - WebHD-Rip - Hindi - x264 - AAC - Mafiaking - M2Tv\r\n\r\n\r\nIMDB=http://www.imdb.com/title/tt5542802/\r\n\r\nRatings: 3.8/10\r\n\r\nGenere:      Comedy, Drama, Mystery\r\n\r\nGeneral\r\nComplete name               : Raabta (2017) - 720p - WebHD-Rip - Hindi - x264 - AAC - Mafiaking - M2Tv.mkv\r\nFormat                      : Matroska\r\nFormat version              : Version 4 / Version 2\r\nFile size                   : 1.06 GiB\r\nDuration                    : 2 h 23 min\r\nOverall bit rate mode       : Variable\r\nOverall bit rate            : 1 054 kb/s\r\nVideo\r\nID                          : 1\r\nFormat                      : AVC\r\nCodec ID                    : V_MPEG4/ISO/AVC\r\nDuration                    : 2 h 23 min\r\nBit rate                    : 925 kb/s\r\nWidth                       : 1 280 pixels\r\nHeight                      : 544 pixels\r\nFrame rate                  : 23.976 (24000/1001) FPS\r\nStream size                 : 948 MiB (88%)\r\nTitle                       : Mafiaking\r\nLanguage                    : Hindi\r\n\r\nAudio\r\nID                          : 2\r\nFormat                      : AAC\r\nDuration                    : 2 h 23 min\r\nBit rate                    : 128 kb/s\r\nChannel(s)                  : 2 channels\r\nStream size                 : 131 MiB (12%)\r\nTitle                       : M2Tv\r\nLanguage                    : Hindi\r\n\r\nScreens:-\r\n <a href=\"\nhttps://www.lookimg.com/image/2VxpQ\" rel=\"nofollow\" target=\"_NEW\">\nhttps://www.lookimg.com/image/2VxpQ</a> <a href=\"\nhttps://www.lookimg.com/image/2V2ZW\" rel=\"nofollow\" target=\"_NEW\">\nhttps://www.lookimg.com/image/2V2ZW</a> <a href=\"\nhttps://www.lookimg.com/image/2VAdh\" rel=\"nofollow\" target=\"_NEW\">\nhttps://www.lookimg.com/image/2VAdh</a> <a href=\"\nhttps://www.lookimg.com/image/2VBtr\" rel=\"nofollow\" target=\"_NEW\">\nhttps://www.lookimg.com/image/2VBtr</a> <a href=\"\nhttps://www.lookimg.com/image/2VKaj\" rel=\"nofollow\" target=\"_NEW\">\nhttps://www.lookimg.com/image/2VKaj</a> <a href=\"\nhttps://www.lookimg.com/image/2Vgoo\" rel=\"nofollow\" target=\"_NEW\">\nhttps://www.lookimg.com/image/2Vgoo</a> <a href=\"\nhttps://www.lookimg.com/image/2VkVH\" rel=\"nofollow\" target=\"_NEW\">\nhttps://www.lookimg.com/image/2VkVH</a> <a href=\"\nhttps://www.lookimg.com/image/2Vo1V\" rel=\"nofollow\" target=\"_NEW\">\nhttps://www.lookimg.com/image/2Vo1V</a> <a href=\"\nhttps://www.lookimg.com/image/2V8AK\" rel=\"nofollow\" target=\"_NEW\">\nhttps://www.lookimg.com/image/2V8AK</a> <a href=\"\nhttps://www.lookimg.com/image/2Vfes\" rel=\"nofollow\" target=\"_NEW\">\nhttps://www.lookimg.com/image/2Vfes</a> <a href=\"\nhttps://www.lookimg.com/image/2Vhpc\" rel=\"nofollow\" target=\"_NEW\">\nhttps://www.lookimg.com/image/2Vhpc</a> <a href=\"\nhttps://www.lookimg.com/image/2Vdvz\" rel=\"nofollow\" target=\"_NEW\">\nhttps://www.lookimg.com/image/2Vdvz</a> <a href=\"\nhttps://www.lookimg.com/image/2V0d3\" rel=\"nofollow\" target=\"_NEW\">\nhttps://www.lookimg.com/image/2V0d3</a> <a href=\"\nhttps://www.lookimg.com/image/2VqCM\" rel=\"nofollow\" target=\"_NEW\">\nhttps://www.lookimg.com/image/2VqCM</a> <a href=\"\nhttps://www.lookimg.com/image/2VGrv\" rel=\"nofollow\" target=\"_NEW\">\nhttps://www.lookimg.com/image/2VGrv</a>","last_updated":"2017-07-23T12:01:29.470Z","parsed":{"xt":"urn:btih:7a978a173f5e7aaea3a2f370de53fb2cce556f4c","dn":"Raabta 2017 720 WebHD-Rip x264 AC3 Mafiaking M2Tv","tr":["udp://exodus.desync.com:6969","udp://open.demonii.com:1337","udp://tracker.coppersurfer.tk:6969","udp://tracker.leechers-paradise.org:6969","udp://zer0day.ch:1337"],"infoHash":"7a978a173f5e7aaea3a2f370de53fb2cce556f4c","infoHashBuffer":{"type":"Buffer","data":[122,151,138,23,63,94,122,174,163,162,243,112,222,83,251,44,206,85,111,76]},"name":"Raabta 2017 720 WebHD-Rip x264 AC3 Mafiaking M2Tv","announce":["udp://exodus.desync.com:6969","udp://open.demonii.com:1337","udp://tracker.coppersurfer.tk:6969","udp://tracker.leechers-paradise.org:6969","udp://zer0day.ch:1337"],"urlList":[]}}